{
  "accessors": [
    {
      "bufferView": 2,
      "componentType": 5126,
      "count": 9085,
      "max": [
        115.10138702392578,
        117.59369659423828,
        246.40521240234375
      ],
      "min": [
        -115.10138702392578,
        12.992294311523438,
        -243.03543090820313
      ],
      "type": "VEC3"
    },
    {
      "bufferView": 2,
      "byteOffset": 109020,
      "componentType": 5126,
      "count": 9085,
      "max": [
        1.0,
        1.0,
        1.0
      ],
      "min": [
        -1.0,
        -1.0,
        -1.0
      ],
      "type": "VEC3"
    },
    {
      "bufferView": 1,
      "componentType": 5126,
      "count": 9085,
      "max": [
        0.9986356496810913,
        0.9974939823150635
      ],
      "min": [
        0.00039124488830566406,
        0.0014910846948623657
      ],
      "type": "VEC2"
    },
    {
      "bufferView": 1,
      "byteOffset": 72680,
      "componentType": 5126,
      "count": 9085,
      "max": [
        0.9986356496810913,
        0.9974939823150635
      ],
      "min": [
        0.00039124488830566406,
        0.0014910846948623657
      ],
      "type": "VEC2"
    },
    {
      "bufferView": 0,
      "componentType": 5125,
      "count": 21804,
      "type": "SCALAR"
    },
    {
      "bufferView": 2,
      "byteOffset": 218040,
      "componentType": 5126,
      "count": 150,
      "max": [
        87.89025115966797,
        110.94427490234375,
        215.86253356933594
      ],
      "min": [
        -87.89025115966797,
        52.84211730957031,
        -59.73163604736328
      ],
      "type": "VEC3"
    },
    {
      "bufferView": 2,
      "byteOffset": 219840,
      "componentType": 5126,
      "count": 150,
      "max": [
        0.8290497660636902,
        0.967564046382904,
        0.912784993648529
      ],
      "min": [
        -0.8290497660636902,
        0.22822238504886627,
        -0.07045304775238037
      ],
      "type": "VEC3"
    },
    {
      "bufferView": 1,
      "byteOffset": 145360,
      "componentType": 5126,
      "count": 150,
      "max": [
        0.9966380596160889,
        0.5224747657775879
      ],
      "min": [
        0.05948436260223389,
        0.15911047160625458
      ],
      "type": "VEC2"
    },
    {
      "bufferView": 0,
      "byteOffset": 87216,
      "componentType": 5125,
      "count": 384,
      "type": "SCALAR"
    },
    {
      "bufferView": 2,
      "byteOffset": 221640,
      "componentType": 5126,
      "count": 751,
      "max": [
        100.67977142333984,
        69.15760803222656,
        162.7312774658203
      ],
      "min": [
        70.17832946777344,
        0.04035353660583496,
        93.61392211914063
      ],
      "type": "VEC3"
    },
    {
      "bufferView": 2,
      "byteOffset": 230652,
      "componentType": 5126,
      "count": 751,
      "max": [
        1.0,
        1.0,
        1.0
      ],
      "min": [
        -1.0,
        -1.0,
        -1.0
      ],
      "type": "VEC3"
    },
    {
      "bufferView": 1,
      "byteOffset": 146560,
      "componentType": 5126,
      "count": 751,
      "max": [
        0.9976577162742615,
        0.9966292381286621
      ],
      "min": [
        0.690108060836792,
        0.5250741839408875
      ],
      "type": "VEC2"
    },
    {
      "bufferView": 1,
      "byteOffset": 152568,
      "componentType": 5126,
      "count": 751,
      "max": [
        0.9976577162742615,
        0.9966292381286621
      ],
      "min": [
        0.690108060836792,
        0.5250741839408875
      ],
      "type": "VEC2"
    },
    {
      "bufferView": 0,
      "byteOffset": 88752,
      "componentType": 5125,
      "count": 2142,
      "type": "SCALAR"
    },
    {
      "bufferView": 2,
      "byteOffset": 239664,
      "componentType": 5126,
      "count": 751,
      "max": [
        -70.17832946777344,
        69.15760803222656,
        162.7312774658203
      ],
      "min": [
        -100.67977142333984,
        0.04035353660583496,
        93.61392211914063
      ],
      "type": "VEC3"
    },
    {
      "bufferView": 2,
      "byteOffset": 248676,
      "componentType": 5126,
      "count": 751,
      "max": [
        1.0,
        1.0,
        1.0
      ],
      "min": [
        -1.0,
        -1.0,
        -1.0
      ],
      "type": "VEC3"
    },
    {
      "bufferView": 1,
      "byteOffset": 158576,
      "componentType": 5126,
      "count": 751,
      "max": [
        0.9976577162742615,
        0.9966292381286621
      ],
      "min": [
        0.690108060836792,
        0.5250741839408875
      ],
      "type": "VEC2"
    },
    {
      "bufferView": 1,
      "byteOffset": 164584,
      "componentType": 5126,
      "count": 751,
      "max": [
        0.9976577162742615,
        0.9966292381286621
      ],
      "min": [
        0.690108060836792,
        0.5250741839408875
      ],
      "type": "VEC2"
    },
    {
      "bufferView": 0,
      "byteOffset": 97320,
      "componentType": 5125,
      "count": 2142,
      "type": "SCALAR"
    },
    {
      "bufferView": 2,
      "byteOffset": 257688,
      "componentType": 5126,
      "count": 751,
      "max": [
        101.48168182373047,
        72.79191589355469,
        -110.35848999023438
      ],
      "min": [
        69.37641906738281,
        0.04035353660583496,
        -183.1101531982422
      ],
      "type": "VEC3"
    },
    {
      "bufferView": 2,
      "byteOffset": 266700,
      "componentType": 5126,
      "count": 751,
      "max": [
        1.0,
        1.0,
        1.0
      ],
      "min": [
        -1.0,
        -1.0,
        -1.0
      ],
      "type": "VEC3"
    },
    {
      "bufferView": 1,
      "byteOffset": 170592,
      "componentType": 5126,
      "count": 751,
      "max": [
        0.9976577162742615,
        0.9966292381286621
      ],
      "min": [
        0.690108060836792,
        0.5250741839408875
      ],
      "type": "VEC2"
    },
    {
      "bufferView": 1,
      "byteOffset": 176600,
      "componentType": 5126,
      "count": 751,
      "max": [
        0.9976577162742615,
        0.9966292381286621
      ],
      "min": [
        0.690108060836792,
        0.5250741839408875
      ],
      "type": "VEC2"
    },
    {
      "bufferView": 0,
      "byteOffset": 105888,
      "componentType": 5125,
      "count": 2142,
      "type": "SCALAR"
    },
    {
      "bufferView": 2,
      "byteOffset": 275712,
      "componentType": 5126,
      "count": 751,
      "max": [
        -69.37641906738281,
        72.79191589355469,
        -110.35848999023438
      ],
      "min": [
        -101.481689453125,
        0.04035353660583496,
        -183.1101531982422
      ],
      "type": "VEC3"
    },
    {
      "bufferView": 2,
      "byteOffset": 284724,
      "componentType": 5126,
      "count": 751,
      "max": [
        1.0,
        1.0,
        1.0
      ],
      "min": [
        -1.0,
        -1.0,
        -1.0
      ],
      "type": "VEC3"
    },
    {
      "bufferView": 1,
      "byteOffset": 182608,
      "componentType": 5126,
      "count": 751,
      "max": [
        0.9976577162742615,
        0.9966292381286621
      ],
      "min": [
        0.690108060836792,
        0.5250741839408875
      ],
      "type": "VEC2"
    },
    {
      "bufferView": 1,
      "byteOffset": 188616,
      "componentType": 5126,
      "count": 751,
      "max": [
        0.9976577162742615,
        0.9966292381286621
      ],
      "min": [
        0.690108060836792,
        0.5250741839408875
      ],
      "type": "VEC2"
    },
    {
      "bufferView": 0,
      "byteOffset": 114456,
      "componentType": 5125,
      "count": 2142,
      "type": "SCALAR"
    }
  ],
  "asset": {
    "extras": {
      "author": "Arion Digital (https://sketchfab.com/andrewswihart)",
      "license": "CC-BY-4.0 (http://creativecommons.org/licenses/by/4.0/)",
      "source": "https://sketchfab.com/3d-models/lamborghini-aventador-888e37a3641d4f7b94bc1a39396e2441",
      "title": "Lamborghini Aventador"
    },
    "generator": "Sketchfab-12.67.0",
    "version": "2.0"
  },
  "bufferViews": [
    {
      "buffer": 0,
      "byteLength": 123024,
      "name": "floatBufferViews",
      "target": 34963
    },
    {
      "buffer": 0,
      "byteLength": 194624,
      "byteOffset": 123024,
      "byteStride": 8,
      "name": "floatBufferViews",
      "target": 34962
    },
    {
      "buffer": 0,
      "byteLength": 293736,
      "byteOffset": 317648,
      "byteStride": 12,
      "name": "floatBufferViews",
      "target": 34962
    }
  ],
  "buffers": [
    {
      "byteLength": 611384,
      "uri": "scene.bin"
    }
  ],
  "extensionsUsed": [
    "KHR_materials_clearcoat"
  ],
  "images": [
    {
      "uri": "textures/Lamborginhi_base_phong_baseColor.jpeg"
    },
    {
      "uri": "textures/Lamborginhi_base_phong_metallicRoughness.png"
    }
  ],
  "materials": [
    {
      "doubleSided": true,
      "extensions": {
        "KHR_materials_clearcoat": {
          "clearcoatFactor": 1.0,
          "clearcoatRoughnessFactor": 0.04
        }
      },
      "name": "Lamborginhi_base_phong",
      "pbrMetallicRoughness": {
        "baseColorTexture": {
          "index": 0
        },
        "metallicRoughnessTexture": {
          "index": 1
        },
        "roughnessFactor": 0.3126833933704304
      }
    },
    {
      "alphaMode": "BLEND",
      "doubleSided": true,
      "extensions": {
        "KHR_materials_clearcoat": {
          "clearcoatFactor": 1.0,
          "clearcoatRoughnessFactor": 0.04
        }
      },
      "name": "Lamborginhi_glass_phong",
      "pbrMetallicRoughness": {
        "baseColorFactor": [
          0.0,
          0.0,
          0.0,
          0.25964365065472683
        ],
        "metallicFactor": 0.9954927072585004,
        "roughnessFactor": 0.888911104484849
      }
    }
  ],
  "meshes": [
    {
      "name": "Body_Lamborginhi_base_phong_0",
      "primitives": [
        {
          "attributes": {
            "NORMAL": 1,
            "POSITION": 0,
            "TEXCOORD_0": 2,
            "TEXCOORD_1": 3
          },
          "indices": 4,
          "material": 0,
          "mode": 4
        }
      ]
    },
    {
      "name": "Glass_Lamborginhi_glass_phong_0",
      "primitives": [
        {
          "attributes": {
            "NORMAL": 6,
            "POSITION": 5,
            "TEXCOORD_0": 7
          },
          "indices": 8,
          "material": 1,
          "mode": 4
        }
      ]
    },
    {
      "name": "Wheel_FL_Lamborginhi_base_phong_0",
      "primitives": [
        {
          "attributes": {
            "NORMAL": 10,
            "POSITION": 9,
            "TEXCOORD_0": 11,
            "TEXCOORD_1": 12
          },
          "indices": 13,
          "material": 0,
          "mode": 4
        }
      ]
    },
    {
      "name": "Wheel_FR_Lamborginhi_base_phong_0",
      "primitives": [
        {
          "attributes": {
            "NORMAL": 15,
            "POSITION": 14,
            "TEXCOORD_0": 16,
            "TEXCOORD_1": 17
          },
          "indices": 18,
          "material": 0,
          "mode": 4
        }
      ]
    },
    {
      "name": "Wheel_RL_Lamborginhi_base_phong_0",
      "primitives": [
        {
          "attributes": {
            "NORMAL": 20,
            "POSITION": 19,
            "TEXCOORD_0": 21,
            "TEXCOORD_1": 22
          },
          "indices": 23,
          "material": 0,
          "mode": 4
        }
      ]
    },
    {
      "name": "Wheel_RR_Lamborginhi_base_phong_0",
      "primitives": [
        {
          "attributes": {
            "NORMAL": 25,
            "POSITION": 24,
            "TEXCOORD_0": 26,
            "TEXCOORD_1": 27
          },
          "indices": 28,
          "material": 0,
          "mode": 4
        }
      ]
    }
  ],
  "nodes": [
    {
      "children": [
        1
      ],
      "matrix": [
        1.0,
        0.0,
        0.0,
        0.0,
        0.0,
        2.220446049250313e-16,
        -1.0,
        0.0,
        0.0,
        1.0,
        2.220446049250313e-16,
        0.0,
        0.0,
        0.0,
        0.0,
        1.0
      ],
      "name": "Sketchfab_model"
    },
    {
      "children": [
        2
      ],
      "matrix": [
        1.0,
        0.0,
        0.0,
        0.0,
        0.0,
        0.0,
        1.0,
        0.0,
        0.0,
        -1.0,
        0.0,
        0.0,
        0.0,
        0.0,
        0.0,
        1.0
      ],
      "name": "Lamborghini_Aventador.fbx"
    },
    {
      "children": [
        3
      ],
      "name": "RootNode"
    },
    {
      "children": [
        4,
        6,
        8,
        10,
        12,
        14
      ],
      "matrix": [
        1.0,
        0.0,
        0.0,
        0.0,
        0.0,
        1.0,
        0.0,
        0.0,
        0.0,
        0.0,
        1.0,
        0.0,
        0.0,
        -1.4210854715202004e-14,
        0.0,
        1.0
      ],
      "name": "Lamborginhi_Aventador"
    },
    {
      "children": [
        5
      ],
      "matrix": [
        1.0,
        0.0,
        0.0,
        0.0,
        0.0,
        1.0,
        0.0,
        0.0,
        0.0,
        0.0,
        1.0,
        0.0,
        0.0,
        1.4210854715202004e-14,
        0.0,
        1.0
      ],
      "name": "Body"
    },
    {
      "mesh": 0,
      "name": "Body_Lamborginhi_base_phong_0"
    },
    {
      "children": [
        7
      ],
      "name": "Glass"
    },
    {
      "mesh": 1,
      "name": "Glass_Lamborginhi_glass_phong_0"
    },
    {
      "children": [
        9
      ],
      "name": "Wheel_FL"
    },
    {
      "mesh": 2,
      "name": "Wheel_FL_Lamborginhi_base_phong_0"
    },
    {
      "children": [
        11
      ],
      "name": "Wheel_FR"
    },
    {
      "mesh": 3,
      "name": "Wheel_FR_Lamborginhi_base_phong_0"
    },
    {
      "children": [
        13
      ],
      "name": "Wheel_RL"
    },
    {
      "mesh": 4,
      "name": "Wheel_RL_Lamborginhi_base_phong_0"
    },
    {
      "children": [
        15
      ],
      "name": "Wheel_RR"
    },
    {
      "mesh": 5,
      "name": "Wheel_RR_Lamborginhi_base_phong_0"
    }
  ],
  "samplers": [
    {
      "magFilter": 9729,
      "minFilter": 9987,
      "wrapS": 10497,
      "wrapT": 10497
    }
  ],
  "scene": 0,
  "scenes": [
    {
      "name": "Sketchfab_Scene",
      "nodes": [
        0
      ]
    }
  ],
  "textures": [
    {
      "sampler": 0,
      "source": 0
    },
    {
      "sampler": 0,
      "source": 1
    }
  ]
}
